<svg xmlns="http://www.w3.org/2000/svg" width="42.978" height="57.305" viewBox="0 0 42.978 57.305">
  <defs>
    <style>
      .cls-1 {
        opacity: 0.64;
      }
    </style>
  </defs>
  <path id="Icon_awesome-file-pdf" data-name="Icon awesome-file-pdf" class="cls-1" d="M20.359,28.663c-.56-1.791-.548-5.249-.224-5.249C21.075,23.414,20.986,27.544,20.359,28.663Zm-.19,5.283a51.644,51.644,0,0,1-3.179,7.018,41.213,41.213,0,0,1,7.04-2.451A14.5,14.5,0,0,1,20.169,33.946ZM9.637,47.914c0,.09,1.477-.6,3.906-4.5C12.793,44.12,10.286,46.157,9.637,47.914Zm18.12-30.007H42.978V54.618A2.68,2.68,0,0,1,40.292,57.3H2.686A2.68,2.68,0,0,1,0,54.618V2.686A2.68,2.68,0,0,1,2.686,0H25.071V15.222A2.694,2.694,0,0,0,27.757,17.908Zm-.9,19.228a11.233,11.233,0,0,1-4.779-6.021c.5-2.071,1.3-5.216.694-7.185-.526-3.291-4.746-2.966-5.35-.761-.56,2.048-.045,4.936.907,8.618a105.1,105.1,0,0,1-4.566,9.6c-.011,0-.011.011-.022.011-3.033,1.556-8.238,4.981-6.1,7.611a3.478,3.478,0,0,0,2.406,1.119c2,0,4-2.015,6.838-6.917a63.8,63.8,0,0,1,8.842-2.6A16.962,16.962,0,0,0,32.894,42.8c3.268,0,3.492-3.582,2.2-4.857-1.556-1.522-6.077-1.086-8.238-.806ZM42.195,11.752,31.226.783A2.684,2.684,0,0,0,29.324,0h-.672V14.326H42.978v-.683A2.678,2.678,0,0,0,42.195,11.752ZM33.9,40.326c.459-.3-.28-1.332-4.79-1.007C33.263,41.087,33.9,40.326,33.9,40.326Z"/>
</svg>
